<?xml version="1.0" encoding="utf-8"?>
<!-- Generator: Adobe Illustrator 25.2.1, SVG Export Plug-In . SVG Version: 6.00 Build 0)  -->
<svg version="1.1" id="Capa_1" xmlns="http://www.w3.org/2000/svg" xmlns:xlink="http://www.w3.org/1999/xlink" x="0px" y="0px"
	 viewBox="0 0 82.45 79.12" style="enable-background:new 0 0 82.45 79.12;" xml:space="preserve">
<style type="text/css">
	.st0{fill:#FFFFFF;}
	.st1{fill:#858689;}
	.st2{fill:#2B2273;}
</style>
<g>
	<path class="st0" d="M35.14,0.61c-1.92,0.93-3.2,2.36-3.53,4.52c-0.34,2.17,0.34,4.01,2.01,5.41c0.73,0.61,0.99,1.26,0.97,2.18
		c-0.04,3.36-0.01,6.71-0.02,10.07c0,1.22-0.16,1.38-1.38,1.39c-2.86,0.01-5.73,0-8.59,0c-1.08,0-1.35,0.23-1.64,1.25
		C22.85,25.84,22.97,26,23.38,26c0.16,0,0.33,0,0.49,0c9.25,0,18.5,0,27.75,0c1.04,0,1.06-0.06,0.69-1.01
		c-0.24-0.62-0.66-0.83-1.3-0.83c-2.96,0.02-5.92,0.01-8.87,0.01c-0.28,0-0.56,0-0.84-0.02c-0.47-0.04-0.73-0.29-0.77-0.76
		c-0.02-0.21-0.02-0.42-0.02-0.63c0-3.33,0.02-6.67-0.01-10c-0.01-0.83,0.25-1.39,0.93-1.9c2.28-1.71,3.05-4.33,2.08-6.95
		c-0.6-1.6-1.77-2.67-3.32-3.37C39.91,0.42,39.51,0.43,39.45,0c-1.17,0-2.35,0-3.52,0C35.85,0.44,35.43,0.47,35.14,0.61z
		 M37.71,2.79c1.67,0.01,2.96,1.24,2.95,2.84c0,1.61-1.33,2.89-3.01,2.87c-1.59-0.01-2.87-1.28-2.87-2.86
		C34.78,4.02,36.05,2.78,37.71,2.79z"/>
	<path class="st0" d="M35.5,0.21c-2.22,0.9-3.73,2.44-4.1,4.86c-0.38,2.47,0.49,4.48,2.48,5.97c0.35,0.26,0.44,0.54,0.44,0.95
		c-0.01,3.76-0.01,7.51,0.01,11.27c0,0.59-0.17,0.76-0.75,0.75c-3.05-0.03-6.11-0.02-9.16-0.03c-1.15,0-1.15-0.01-1.56,1.07
		c-0.46,1.21-0.46,1.2,0.84,1.2c9.23,0,18.46,0,27.69,0c1.66,0,1.64,0.03,1.03-1.54c-0.23-0.58-0.56-0.75-1.16-0.75
		c-3.26,0.03-6.53,0.01-9.79,0.04c-0.54,0-0.73-0.14-0.73-0.71c0.03-3.69,0.02-7.37,0.01-11.06c0-0.46,0.12-0.74,0.54-1.03
		c3.44-2.37,3.82-6.85,0.86-9.65C41.37,0.83,40.41,0.42,39.45,0c0.06,0.43,0.46,0.42,0.74,0.55c1.54,0.7,2.72,1.77,3.32,3.37
		c0.98,2.62,0.21,5.24-2.08,6.95c-0.68,0.51-0.94,1.07-0.93,1.9c0.03,3.33,0.01,6.67,0.01,10c0,0.21,0,0.42,0.02,0.63
		c0.05,0.47,0.31,0.72,0.77,0.76c0.28,0.03,0.56,0.02,0.84,0.02c2.96,0,5.92,0.01,8.87-0.01c0.64,0,1.06,0.21,1.3,0.83
		c0.37,0.95,0.34,1.01-0.69,1.01c-9.25,0-18.5,0-27.75,0c-0.16,0-0.33,0-0.49,0c-0.41,0-0.54-0.16-0.42-0.58
		c0.29-1.03,0.56-1.25,1.64-1.25c2.86,0,5.73,0,8.59,0c1.22,0,1.38-0.16,1.38-1.39c0.01-3.36-0.02-6.72,0.02-10.07
		c0.01-0.92-0.25-1.58-0.97-2.18c-1.68-1.4-2.35-3.24-2.01-5.41c0.33-2.15,1.61-3.59,3.53-4.52c0.29-0.14,0.71-0.17,0.78-0.61
		C35.84,0.18,35.65,0.15,35.5,0.21z"/>
	<path class="st0" d="M22.4,51.45c-1.48-1.04-3.16-1.51-4.89-1.88c-0.26-0.06-0.73,0.11-0.73-0.32c0-0.32,0.42-0.29,0.67-0.37
		c1.09-0.37,2.19-0.69,3.19-1.27c1.72-1,2.72-2.47,2.67-4.48c-0.05-2.07-1.1-3.53-3.03-4.35c-1.45-0.62-2.97-0.91-4.52-0.95
		c-2.46-0.07-4.93-0.02-7.4-0.02c0-0.01,0-0.02,0-0.03c-2.54,0-5.07,0-7.61,0c-0.36,0-0.76-0.11-0.77,0.51
		c-0.01,0.53,0.11,0.88,0.7,0.89c0.55,0.01,1.06,0.18,1.57,0.35c1.21,0.4,1.51,0.81,1.52,2.12c0.01,1.17,0.01,2.35,0.01,3.52
		c0,4.6,0,9.21,0,13.81c0,1.41-0.54,2.02-1.92,2.21c-0.42,0.06-0.84,0.15-1.26,0.14c-0.67-0.02-0.58,0.41-0.61,0.84
		c-0.03,0.53,0.29,0.54,0.68,0.54c5.1-0.04,10.19,0.13,15.28-0.15c1.9-0.1,3.74-0.5,5.51-1.29C25.36,59.53,25.78,53.81,22.4,51.45z
		 M10.56,39.25c1.25-0.08,2.49-0.09,3.67,0.4c1.03,0.43,1.79,1.18,2.07,2.25c0.41,1.57,0.44,3.17-0.45,4.62
		c-0.94,1.53-2.46,2.03-4.13,2.14c-1.74,0.11-1.74,0.08-1.74-1.65c0-0.99,0-1.97,0-2.96c0,0,0,0,0,0c0-1.36,0.02-2.72-0.01-4.08
		C9.96,39.52,10.06,39.28,10.56,39.25z M16.11,60.1c-1.26,1.11-3.61,1.46-5.09,0.66c-0.68-0.37-1.07-0.89-1.05-1.75
		c0.04-2.58,0.02-5.16,0.01-7.74c0-0.96-0.01-0.96,0.94-0.98c0.23,0,0.47,0,0.7,0c1.38-0.03,2.72,0.15,3.92,0.88
		c1.75,1.07,2.32,2.77,2.29,4.7C17.8,57.48,17.4,58.97,16.11,60.1z"/>
	<path class="st0" d="M54.65,61.33c-1.08-0.07-2.15-0.24-3.14-0.7c-1.99-0.91-3.27-2.63-4.69-4.18c-0.2-0.22-0.08-0.39,0.05-0.56
		c1.29-1.74,2.28-3.66,3.38-5.51c0.51-0.86,1.2-1.5,2.15-1.83c0.54-0.18,1.1-0.25,1.66-0.26c0.62,0,0.63-0.37,0.65-0.83
		c0.02-0.53-0.27-0.55-0.66-0.55c-2.79,0.01-5.59,0-8.38,0.01c-0.35,0-0.73-0.09-0.72,0.49c0.01,0.47-0.02,0.87,0.64,0.94
		c0.5,0.06,1,0.24,1.48,0.42c0.8,0.29,1,0.7,0.84,1.52c-0.29,1.58-1.03,2.95-1.89,4.28c-0.28,0.44-0.43,0.41-0.74,0.04
		c-1.69-1.98-3.37-3.97-4.99-6.01c-0.42-0.53-0.3-0.72,0.19-1.04c1.32-0.84,2.55-1.8,3.22-3.26c1.13-2.46,0.77-5.39-2.45-6.68
		c-1.55-0.62-3.15-0.72-4.77-0.41c-3.73,0.71-6.71,3.64-4.93,8.28c0.45,1.17,1.18,2.19,1.94,3.17c0.34,0.43,0.25,0.59-0.21,0.82
		c-1.52,0.75-2.98,1.58-4.11,2.9c-2.91,3.42-1.91,8.34,2.07,10.11c1.8,0.8,3.69,0.87,5.6,0.58c2.05-0.32,3.82-1.27,5.36-2.63
		c0.37-0.32,0.59-0.33,0.89,0.06c0.43,0.56,0.93,1.06,1.37,1.61c0.32,0.4,0.69,0.58,1.21,0.57c1.48-0.02,2.96-0.01,4.44-0.01
		c1.5,0,3.01,0,4.51,0c0.38,0,0.7,0,0.7-0.53C55.34,61.65,55.23,61.37,54.65,61.33z M38.68,38.66c1.47-0.15,2.73,0.73,2.98,2.69
		c0.03,0.21,0,0.42,0,0.63c0.02,1.82-0.65,3.32-2.06,4.5c-0.38,0.31-0.62,0.39-0.94-0.1c-0.88-1.33-1.83-2.61-2.21-4.21
		C36.02,40.34,36.9,38.85,38.68,38.66z M41.34,59.34c-0.95,0.64-1.97,0.96-2.92,0.88c-3.42,0.01-5.54-2.09-5.55-5.3
		c-0.01-1.54,0.36-2.96,1.34-4.19c0.29-0.37,0.49-0.45,0.84-0.02c2.12,2.62,4.26,5.22,6.42,7.81C41.81,58.92,41.7,59.11,41.34,59.34
		z"/>
	<path class="st0" d="M82.45,38.23c0.03-0.39-0.18-0.47-0.52-0.47c-3.29,0.01-6.58,0-9.86,0c-0.3,0-0.54,0.06-0.49,0.42
		c0.04,0.35-0.23,0.89,0.38,0.97c0.57,0.07,1.08,0.31,1.62,0.45c1.03,0.27,1.74,0.91,2.04,1.94c0.17,0.58,0.33,1.18,0.33,1.8
		c0.01,3.9,0.06,7.8-0.02,11.69c-0.03,1.51-0.57,2.95-1.65,4.1c-1.75,1.87-3.98,2.18-6.35,1.82c-2.84-0.42-4.32-1.9-4.82-4.72
		c-0.15-0.85-0.21-1.73-0.22-2.59c-0.02-3.97-0.01-7.94-0.01-11.91c0-1.78,0.57-2.38,2.36-2.55c0.16-0.02,0.33-0.05,0.49-0.05
		c0.6-0.01,0.7-0.35,0.68-0.88c-0.02-0.64-0.46-0.47-0.8-0.48c-1.13-0.01-2.25,0-3.38,0c-2.72,0-5.45,0.01-8.17-0.01
		c-0.56-0.01-0.71,0.17-0.71,0.72c0,0.69,0.49,0.63,0.91,0.71c1.81,0.35,2.54,1.11,2.47,2.58c-0.09,2.13-0.02,4.27-0.02,6.4
		c0.02,0,0.04,0,0.07,0c0,2.28-0.09,4.56,0.02,6.83c0.17,3.56,1.96,6.05,5.29,7.35c2.95,1.15,6,1.3,9.06,0.63
		c2.27-0.49,4.15-1.7,5.48-3.66c0.97-1.42,1.42-3.01,1.43-4.71c0.04-3.31,0.03-6.62,0.03-9.93c0-0.94,0.05-1.88,0.19-2.81
		c0.19-1.25,0.84-2.1,2.12-2.43c0.52-0.13,1.05-0.25,1.58-0.3C82.6,39.09,82.42,38.6,82.45,38.23z"/>
	<path class="st0" d="M32.45,33.03c0.01,0.21,0.04,0.42,0.04,0.63c0.03,1.94,0.03,1.92,2,1.9c0.51-0.01,0.64-0.19,0.62-0.66
		c-0.03-0.73,0.03-1.46-0.02-2.18c-0.05-0.67,0.23-0.86,0.86-0.83c0.96,0.04,1.93,0.01,2.89,0.01c1.61-0.01,1.61-0.01,1.61,1.62
		c0,2.08,0,2.08,2.08,2.04c0.05,0,0.09,0,0.14,0c0.4,0.03,0.54-0.16,0.54-0.55c-0.01-0.8,0.02-1.6-0.02-2.4
		c-0.03-0.55,0.14-0.73,0.71-0.72c2.37,0.03,4.74,0.01,7.12,0.01c1.9,0,3.81-0.01,5.71,0.01c0.51,0.01,0.62-0.15,0.46-0.62
		c-0.2-0.58-0.4-1.16-0.52-1.75c-0.12-0.58-0.37-0.79-1-0.79c-5.99,0.03-11.98,0.02-17.97,0.01c-5.99,0-11.98,0.01-17.97-0.01
		c-0.57,0-0.87,0.16-0.99,0.72c-0.13,0.57-0.27,1.14-0.48,1.69c-0.23,0.63-0.01,0.74,0.59,0.74c4.11-0.02,8.22-0.01,12.33-0.01
		C32.37,31.89,32.37,31.89,32.45,33.03z"/>
	<path class="st0" d="M43.21,68.2C43.21,68.2,43.22,68.2,43.21,68.2c0-0.49,0-0.99,0-1.48c0.01-2.07,0.02-2.06-2.09-2.03
		c-0.54,0.01-0.68,0.2-0.67,0.71c0.03,1.6,0.01,3.19,0.02,4.79c0,0.33-0.01,0.65-0.22,0.94c-0.74,1-1.47,2-2.19,3.02
		c-0.28,0.4-0.47,0.36-0.72-0.02c-0.6-0.92-1.22-1.84-1.85-2.74c-0.27-0.38-0.38-0.78-0.38-1.25c0.02-1.6-0.01-3.19,0.02-4.79
		c0.01-0.49-0.14-0.68-0.64-0.64c-0.47,0.03-0.94,0.02-1.41,0c-0.41-0.02-0.59,0.1-0.59,0.55c0,1.88-0.03,3.76-0.05,5.63
		c0,0.36,0.04,0.7,0.25,1.01c1.54,2.3,3.08,4.6,4.59,6.91c0.3,0.47,0.46,0.37,0.73-0.01c1.12-1.59,2.17-3.25,3.43-4.72
		c1.48-1.72,2.1-3.59,1.78-5.8C43.21,68.25,43.21,68.22,43.21,68.2z"/>
</g>
<g>
	<g>
		<path class="st1" d="M141.71,0.26c-1.92,0.93-3.2,2.36-3.53,4.52c-0.34,2.17,0.34,4.01,2.01,5.41c0.73,0.61,0.99,1.26,0.97,2.18
			c-0.04,3.36-0.01,6.71-0.02,10.07c0,1.22-0.16,1.38-1.38,1.39c-2.86,0.01-5.73,0-8.59,0c-1.08,0-1.35,0.23-1.64,1.25
			c-0.12,0.41,0.01,0.58,0.42,0.58c0.16,0,0.33,0,0.49,0c9.25,0,18.5,0,27.75,0c1.04,0,1.06-0.06,0.69-1.01
			c-0.24-0.62-0.66-0.83-1.3-0.83c-2.96,0.02-5.92,0.01-8.87,0.01c-0.28,0-0.56,0-0.84-0.02c-0.47-0.04-0.73-0.29-0.77-0.76
			c-0.02-0.21-0.02-0.42-0.02-0.63c0-3.33,0.02-6.67-0.01-10c-0.01-0.83,0.25-1.39,0.93-1.9c2.28-1.71,3.05-4.33,2.08-6.95
			c-0.6-1.6-1.77-2.67-3.32-3.37c-0.28-0.13-0.68-0.12-0.74-0.55c-1.17,0-2.35,0-3.52,0C142.42,0.09,142,0.12,141.71,0.26z
			 M144.27,2.44c1.67,0.01,2.96,1.24,2.95,2.84c0,1.61-1.33,2.89-3.01,2.87c-1.59-0.01-2.87-1.28-2.87-2.86
			C141.34,3.67,142.61,2.43,144.27,2.44z"/>
		<path class="st1" d="M142.07-0.14c-2.22,0.9-3.73,2.44-4.1,4.86c-0.38,2.47,0.49,4.48,2.48,5.97c0.35,0.26,0.44,0.54,0.44,0.95
			c-0.01,3.76-0.01,7.51,0.01,11.27c0,0.59-0.17,0.76-0.75,0.75c-3.05-0.03-6.11-0.02-9.16-0.03c-1.15,0-1.15-0.01-1.56,1.07
			c-0.46,1.21-0.46,1.2,0.84,1.2c9.23,0,18.46,0,27.69,0c1.66,0,1.64,0.03,1.03-1.54c-0.23-0.58-0.56-0.75-1.16-0.75
			c-3.26,0.03-6.53,0.01-9.79,0.04c-0.54,0-0.73-0.14-0.73-0.71c0.03-3.69,0.02-7.37,0.01-11.06c0-0.46,0.12-0.74,0.54-1.03
			c3.44-2.37,3.82-6.85,0.86-9.65c-0.78-0.74-1.75-1.14-2.71-1.57c0.06,0.43,0.46,0.42,0.74,0.55c1.54,0.7,2.72,1.77,3.32,3.37
			c0.98,2.62,0.21,5.24-2.08,6.95c-0.68,0.51-0.94,1.07-0.93,1.9c0.03,3.33,0.01,6.67,0.01,10c0,0.21,0,0.42,0.02,0.63
			c0.05,0.47,0.31,0.72,0.77,0.76c0.28,0.03,0.56,0.02,0.84,0.02c2.96,0,5.92,0.01,8.87-0.01c0.64,0,1.06,0.21,1.3,0.83
			c0.37,0.95,0.34,1.01-0.69,1.01c-9.25,0-18.5,0-27.75,0c-0.16,0-0.33,0-0.49,0c-0.41,0-0.54-0.16-0.42-0.58
			c0.29-1.03,0.56-1.25,1.64-1.25c2.86,0,5.73,0,8.59,0c1.22,0,1.38-0.16,1.38-1.39c0.01-3.36-0.02-6.72,0.02-10.07
			c0.01-0.92-0.25-1.58-0.97-2.18c-1.68-1.4-2.35-3.24-2.01-5.41c0.33-2.15,1.61-3.59,3.53-4.52c0.29-0.14,0.71-0.17,0.78-0.61
			C142.41-0.17,142.21-0.2,142.07-0.14z"/>
		<path class="st1" d="M128.97,51.09c-1.48-1.04-3.16-1.51-4.89-1.88c-0.26-0.06-0.73,0.11-0.73-0.32c0-0.32,0.42-0.29,0.67-0.37
			c1.09-0.37,2.19-0.69,3.19-1.27c1.72-1,2.72-2.47,2.67-4.48c-0.05-2.07-1.1-3.53-3.03-4.35c-1.45-0.62-2.97-0.91-4.52-0.95
			c-2.46-0.07-4.93-0.02-7.4-0.02c0-0.01,0-0.02,0-0.03c-2.54,0-5.07,0-7.61,0c-0.36,0-0.76-0.11-0.77,0.51
			c-0.01,0.53,0.11,0.88,0.7,0.89c0.55,0.01,1.06,0.18,1.57,0.35c1.21,0.4,1.51,0.81,1.52,2.12c0.01,1.17,0.01,2.35,0.01,3.52
			c0,4.6,0,9.21,0,13.81c0,1.41-0.54,2.02-1.92,2.21c-0.42,0.06-0.84,0.15-1.26,0.14c-0.67-0.02-0.58,0.41-0.61,0.84
			c-0.03,0.53,0.29,0.54,0.68,0.54c5.1-0.04,10.19,0.13,15.28-0.15c1.9-0.1,3.74-0.5,5.51-1.29
			C131.93,59.18,132.35,53.46,128.97,51.09z M117.13,38.9c1.25-0.08,2.49-0.09,3.67,0.4c1.03,0.43,1.79,1.18,2.07,2.25
			c0.41,1.57,0.44,3.17-0.45,4.62c-0.94,1.53-2.46,2.03-4.13,2.14c-1.74,0.11-1.74,0.08-1.74-1.65c0-0.99,0-1.97,0-2.96c0,0,0,0,0,0
			c0-1.36,0.02-2.72-0.01-4.08C116.53,39.16,116.63,38.93,117.13,38.9z M122.67,59.75c-1.26,1.11-3.61,1.46-5.09,0.66
			c-0.68-0.37-1.07-0.89-1.05-1.75c0.04-2.58,0.02-5.16,0.01-7.74c0-0.96-0.01-0.96,0.94-0.98c0.23,0,0.47,0,0.7,0
			c1.38-0.03,2.72,0.15,3.92,0.88c1.75,1.07,2.32,2.77,2.29,4.7C124.37,57.12,123.96,58.62,122.67,59.75z"/>
		<path class="st1" d="M161.22,60.98c-1.08-0.07-2.15-0.24-3.14-0.7c-1.99-0.91-3.27-2.63-4.69-4.18c-0.2-0.22-0.08-0.39,0.05-0.56
			c1.29-1.74,2.28-3.66,3.38-5.51c0.51-0.86,1.2-1.5,2.15-1.83c0.54-0.18,1.1-0.25,1.66-0.26c0.62,0,0.63-0.37,0.65-0.83
			c0.02-0.53-0.27-0.55-0.66-0.55c-2.79,0.01-5.59,0-8.38,0.01c-0.35,0-0.73-0.09-0.72,0.49c0.01,0.47-0.02,0.87,0.64,0.94
			c0.5,0.06,1,0.24,1.48,0.42c0.8,0.29,1,0.7,0.84,1.52c-0.29,1.58-1.03,2.95-1.89,4.28c-0.28,0.44-0.43,0.41-0.74,0.04
			c-1.69-1.98-3.37-3.97-4.99-6.01c-0.42-0.53-0.3-0.72,0.19-1.04c1.32-0.84,2.55-1.8,3.22-3.26c1.13-2.46,0.77-5.39-2.45-6.68
			c-1.55-0.62-3.15-0.72-4.77-0.41c-3.73,0.71-6.71,3.64-4.93,8.28c0.45,1.17,1.18,2.19,1.94,3.17c0.34,0.43,0.25,0.59-0.21,0.82
			c-1.52,0.75-2.98,1.58-4.11,2.9c-2.91,3.42-1.91,8.34,2.07,10.11c1.8,0.8,3.69,0.87,5.6,0.58c2.05-0.32,3.82-1.27,5.36-2.63
			c0.37-0.32,0.59-0.33,0.89,0.06c0.43,0.56,0.93,1.06,1.37,1.61c0.32,0.4,0.69,0.58,1.21,0.57c1.48-0.02,2.96-0.01,4.44-0.01
			c1.5,0,3.01,0,4.51,0c0.38,0,0.7,0,0.7-0.53C161.91,61.3,161.8,61.02,161.22,60.98z M145.25,38.31c1.47-0.15,2.73,0.73,2.98,2.69
			c0.03,0.21,0,0.42,0,0.63c0.02,1.82-0.65,3.32-2.06,4.5c-0.38,0.31-0.62,0.39-0.94-0.1c-0.88-1.33-1.83-2.61-2.21-4.21
			C142.59,39.99,143.46,38.5,145.25,38.31z M147.91,58.99c-0.95,0.64-1.97,0.96-2.92,0.88c-3.42,0.01-5.54-2.09-5.55-5.3
			c-0.01-1.54,0.36-2.96,1.34-4.19c0.29-0.37,0.49-0.45,0.84-0.02c2.12,2.62,4.26,5.22,6.42,7.81
			C148.38,58.56,148.26,58.76,147.91,58.99z"/>
		<path class="st1" d="M189.01,37.88c0.03-0.39-0.18-0.47-0.52-0.47c-3.29,0.01-6.58,0-9.86,0c-0.3,0-0.54,0.06-0.49,0.42
			c0.04,0.35-0.23,0.89,0.38,0.97c0.57,0.07,1.08,0.31,1.62,0.45c1.03,0.27,1.74,0.91,2.04,1.94c0.17,0.58,0.33,1.18,0.33,1.8
			c0.01,3.9,0.06,7.8-0.02,11.69c-0.03,1.51-0.57,2.95-1.65,4.1c-1.75,1.87-3.98,2.18-6.35,1.82c-2.84-0.42-4.32-1.9-4.82-4.72
			c-0.15-0.85-0.21-1.73-0.22-2.59c-0.02-3.97-0.01-7.94-0.01-11.91c0-1.78,0.57-2.38,2.36-2.55c0.16-0.02,0.33-0.05,0.49-0.05
			c0.6-0.01,0.7-0.35,0.68-0.88c-0.02-0.64-0.46-0.47-0.8-0.48c-1.13-0.01-2.25,0-3.38,0c-2.72,0-5.45,0.01-8.17-0.01
			c-0.56-0.01-0.71,0.17-0.71,0.72c0,0.69,0.49,0.63,0.91,0.71c1.81,0.35,2.54,1.11,2.47,2.58c-0.09,2.13-0.02,4.27-0.02,6.4
			c0.02,0,0.04,0,0.07,0c0,2.28-0.09,4.56,0.02,6.83c0.17,3.56,1.96,6.05,5.29,7.35c2.95,1.15,6,1.3,9.06,0.63
			c2.27-0.49,4.15-1.7,5.48-3.66c0.97-1.42,1.42-3.01,1.43-4.71c0.04-3.31,0.03-6.62,0.03-9.93c0-0.94,0.05-1.88,0.19-2.81
			c0.19-1.25,0.84-2.1,2.12-2.43c0.52-0.13,1.05-0.25,1.59-0.3C189.17,38.74,188.98,38.25,189.01,37.88z"/>
		<path class="st1" d="M139.02,32.68c0.01,0.21,0.04,0.42,0.04,0.63c0.03,1.94,0.03,1.92,2,1.9c0.51-0.01,0.64-0.19,0.62-0.66
			c-0.03-0.73,0.03-1.46-0.02-2.18c-0.05-0.67,0.23-0.86,0.86-0.83c0.96,0.04,1.93,0.01,2.89,0.01c1.61-0.01,1.61-0.01,1.61,1.62
			c0,2.08,0,2.08,2.08,2.04c0.05,0,0.09,0,0.14,0c0.4,0.03,0.54-0.16,0.54-0.55c-0.01-0.8,0.02-1.6-0.02-2.4
			c-0.03-0.55,0.14-0.73,0.71-0.72c2.37,0.03,4.74,0.01,7.12,0.01c1.9,0,3.81-0.01,5.71,0.01c0.51,0.01,0.62-0.15,0.46-0.62
			c-0.2-0.58-0.4-1.16-0.52-1.75c-0.12-0.58-0.37-0.79-1-0.79c-5.99,0.03-11.98,0.02-17.97,0.01c-5.99,0-11.98,0.01-17.97-0.01
			c-0.57,0-0.87,0.16-0.99,0.72c-0.13,0.57-0.27,1.14-0.48,1.69c-0.23,0.63-0.01,0.74,0.59,0.74c4.11-0.02,8.22-0.01,12.33-0.01
			C138.94,31.54,138.94,31.54,139.02,32.68z"/>
		<path class="st1" d="M149.78,67.85C149.78,67.85,149.78,67.85,149.78,67.85c0-0.49,0-0.99,0-1.48c0.01-2.07,0.02-2.06-2.09-2.03
			c-0.54,0.01-0.68,0.2-0.67,0.71c0.03,1.6,0.01,3.19,0.02,4.79c0,0.33-0.01,0.65-0.22,0.94c-0.74,1-1.47,2-2.19,3.02
			c-0.28,0.4-0.47,0.36-0.72-0.02c-0.6-0.92-1.22-1.84-1.85-2.74c-0.27-0.38-0.38-0.78-0.38-1.25c0.02-1.6-0.01-3.19,0.02-4.79
			c0.01-0.49-0.14-0.68-0.64-0.64c-0.47,0.03-0.94,0.02-1.41,0c-0.41-0.02-0.59,0.1-0.59,0.55c0,1.88-0.03,3.76-0.05,5.63
			c0,0.36,0.04,0.7,0.25,1.01c1.54,2.3,3.08,4.6,4.59,6.91c0.3,0.47,0.46,0.37,0.73-0.01c1.12-1.59,2.17-3.25,3.43-4.72
			c1.48-1.72,2.1-3.59,1.78-5.8C149.78,67.9,149.78,67.87,149.78,67.85z"/>
	</g>
</g>
<g>
	<g>
		<path class="st2" d="M143.78-112.95c-1.92,0.93-3.2,2.36-3.53,4.52c-0.34,2.17,0.34,4.01,2.01,5.41c0.73,0.61,0.99,1.26,0.97,2.18
			c-0.04,3.36-0.01,6.71-0.02,10.07c0,1.22-0.16,1.38-1.38,1.39c-2.86,0.01-5.73,0-8.59,0c-1.08,0-1.35,0.23-1.64,1.25
			c-0.12,0.41,0.01,0.58,0.42,0.58c0.16,0,0.33,0,0.49,0c9.25,0,18.5,0,27.75,0c1.04,0,1.06-0.06,0.69-1.01
			c-0.24-0.62-0.66-0.83-1.3-0.83c-2.96,0.02-5.92,0.01-8.87,0.01c-0.28,0-0.56,0-0.84-0.02c-0.47-0.04-0.73-0.29-0.77-0.76
			c-0.02-0.21-0.02-0.42-0.02-0.63c0-3.33,0.02-6.67-0.01-10c-0.01-0.83,0.25-1.39,0.93-1.9c2.28-1.71,3.05-4.33,2.08-6.95
			c-0.6-1.6-1.77-2.67-3.32-3.37c-0.28-0.13-0.68-0.12-0.74-0.55c-1.17,0-2.35,0-3.52,0C144.49-113.12,144.07-113.1,143.78-112.95z
			 M146.35-110.77c1.67,0.01,2.96,1.24,2.95,2.84c0,1.61-1.33,2.89-3.01,2.87c-1.59-0.01-2.87-1.28-2.87-2.86
			C143.42-109.54,144.69-110.78,146.35-110.77z"/>
		<path class="st2" d="M144.14-113.35c-2.22,0.9-3.73,2.44-4.1,4.86c-0.38,2.47,0.49,4.48,2.48,5.97c0.35,0.26,0.44,0.54,0.44,0.95
			c-0.01,3.76-0.01,7.51,0.01,11.27c0,0.59-0.17,0.76-0.75,0.75c-3.05-0.03-6.11-0.02-9.16-0.03c-1.15,0-1.15-0.01-1.56,1.07
			c-0.46,1.21-0.46,1.2,0.84,1.2c9.23,0,18.46,0,27.69,0c1.66,0,1.64,0.03,1.03-1.54c-0.23-0.58-0.56-0.75-1.16-0.75
			c-3.26,0.03-6.53,0.01-9.79,0.04c-0.54,0-0.73-0.14-0.73-0.71c0.03-3.69,0.02-7.37,0.01-11.06c0-0.46,0.12-0.74,0.54-1.03
			c3.44-2.37,3.82-6.85,0.86-9.65c-0.78-0.74-1.75-1.14-2.71-1.57c0.06,0.43,0.46,0.42,0.74,0.55c1.54,0.7,2.72,1.77,3.32,3.37
			c0.98,2.62,0.21,5.24-2.08,6.95c-0.68,0.51-0.94,1.07-0.93,1.9c0.03,3.33,0.01,6.67,0.01,10c0,0.21,0,0.42,0.02,0.63
			c0.05,0.47,0.31,0.72,0.77,0.76c0.28,0.03,0.56,0.02,0.84,0.02c2.96,0,5.92,0.01,8.87-0.01c0.64,0,1.06,0.21,1.3,0.83
			c0.37,0.95,0.34,1.01-0.69,1.01c-9.25,0-18.5,0-27.75,0c-0.16,0-0.33,0-0.49,0c-0.41,0-0.54-0.16-0.42-0.58
			c0.29-1.03,0.56-1.25,1.64-1.25c2.86,0,5.73,0,8.59,0c1.22,0,1.38-0.16,1.38-1.39c0.01-3.36-0.02-6.72,0.02-10.07
			c0.01-0.92-0.25-1.58-0.97-2.18c-1.68-1.4-2.35-3.24-2.01-5.41c0.33-2.15,1.61-3.59,3.53-4.52c0.29-0.14,0.71-0.17,0.78-0.61
			C144.48-113.38,144.29-113.41,144.14-113.35z"/>
		<path class="st2" d="M131.04-62.12c-1.48-1.04-3.16-1.51-4.89-1.88c-0.26-0.06-0.73,0.11-0.73-0.32c0-0.32,0.42-0.29,0.67-0.37
			c1.09-0.37,2.19-0.69,3.19-1.27c1.72-1,2.72-2.47,2.67-4.48c-0.05-2.07-1.1-3.53-3.03-4.35c-1.45-0.62-2.97-0.91-4.52-0.95
			c-2.46-0.07-4.93-0.02-7.4-0.02c0-0.01,0-0.02,0-0.03c-2.54,0-5.07,0-7.61,0c-0.36,0-0.76-0.11-0.77,0.51
			c-0.01,0.53,0.11,0.88,0.7,0.89c0.55,0.01,1.06,0.18,1.57,0.35c1.21,0.4,1.51,0.81,1.52,2.12c0.01,1.17,0.01,2.35,0.01,3.52
			c0,4.6,0,9.21,0,13.81c0,1.41-0.54,2.02-1.92,2.21c-0.42,0.06-0.84,0.15-1.26,0.14c-0.67-0.02-0.58,0.41-0.61,0.84
			c-0.03,0.53,0.29,0.54,0.68,0.54c5.1-0.04,10.19,0.13,15.28-0.15c1.9-0.1,3.74-0.5,5.51-1.29C134-54.03,134.42-59.75,131.04-62.12
			z M119.2-74.32c1.25-0.08,2.49-0.09,3.67,0.4c1.03,0.43,1.79,1.18,2.07,2.25c0.41,1.57,0.44,3.17-0.45,4.62
			c-0.94,1.53-2.46,2.03-4.13,2.14c-1.74,0.11-1.74,0.08-1.74-1.65c0-0.99,0-1.97,0-2.96c0,0,0,0,0,0c0-1.36,0.02-2.72-0.01-4.08
			C118.6-74.05,118.7-74.28,119.2-74.32z M124.75-53.46c-1.26,1.11-3.61,1.46-5.09,0.66c-0.68-0.37-1.07-0.89-1.05-1.75
			c0.04-2.58,0.02-5.16,0.01-7.74c0-0.96-0.01-0.96,0.94-0.98c0.23,0,0.47,0,0.7,0c1.38-0.03,2.72,0.15,3.92,0.88
			c1.75,1.07,2.32,2.77,2.29,4.7C126.44-56.09,126.04-54.6,124.75-53.46z"/>
		<path class="st2" d="M163.29-52.24c-1.08-0.07-2.15-0.24-3.14-0.7c-1.99-0.91-3.27-2.63-4.69-4.18c-0.2-0.22-0.08-0.39,0.05-0.56
			c1.29-1.74,2.28-3.66,3.38-5.51c0.51-0.86,1.2-1.5,2.15-1.83c0.54-0.18,1.1-0.25,1.66-0.26c0.62,0,0.63-0.37,0.65-0.83
			c0.02-0.53-0.27-0.55-0.66-0.55c-2.79,0.01-5.59,0-8.38,0.01c-0.35,0-0.73-0.09-0.72,0.49c0.01,0.47-0.02,0.87,0.64,0.94
			c0.5,0.06,1,0.24,1.48,0.42c0.8,0.29,1,0.7,0.84,1.52c-0.29,1.58-1.03,2.95-1.89,4.28c-0.28,0.44-0.43,0.41-0.74,0.04
			c-1.69-1.98-3.37-3.97-4.99-6.01c-0.42-0.53-0.3-0.72,0.19-1.04c1.32-0.84,2.55-1.8,3.22-3.26c1.13-2.46,0.77-5.39-2.45-6.68
			c-1.55-0.62-3.15-0.72-4.77-0.41c-3.73,0.71-6.71,3.64-4.93,8.28c0.45,1.17,1.18,2.19,1.94,3.17c0.34,0.43,0.25,0.59-0.21,0.82
			c-1.52,0.75-2.98,1.58-4.11,2.9c-2.91,3.42-1.91,8.34,2.07,10.11c1.8,0.8,3.69,0.87,5.6,0.58c2.05-0.32,3.82-1.27,5.36-2.63
			c0.37-0.32,0.59-0.33,0.89,0.06c0.43,0.56,0.93,1.06,1.37,1.61c0.32,0.4,0.69,0.58,1.21,0.57c1.48-0.02,2.96-0.01,4.44-0.01
			c1.5,0,3.01,0,4.51,0c0.38,0,0.7,0,0.7-0.53C163.98-51.92,163.87-52.2,163.29-52.24z M147.32-74.9c1.47-0.15,2.73,0.73,2.98,2.69
			c0.03,0.21,0,0.42,0,0.63c0.02,1.82-0.65,3.32-2.06,4.5c-0.38,0.31-0.62,0.39-0.94-0.1c-0.88-1.33-1.83-2.61-2.21-4.21
			C144.66-73.22,145.54-74.71,147.32-74.9z M149.98-54.22c-0.95,0.64-1.97,0.96-2.92,0.88c-3.42,0.01-5.54-2.09-5.55-5.3
			c-0.01-1.54,0.36-2.96,1.34-4.19c0.29-0.37,0.49-0.45,0.84-0.02c2.12,2.62,4.26,5.22,6.42,7.81
			C150.45-54.65,150.34-54.46,149.98-54.22z"/>
		<path class="st2" d="M191.08-75.33c0.03-0.39-0.18-0.47-0.52-0.47c-3.29,0.01-6.58,0-9.86,0c-0.3,0-0.54,0.06-0.49,0.42
			c0.04,0.35-0.23,0.89,0.38,0.97c0.57,0.07,1.08,0.31,1.62,0.45c1.03,0.27,1.74,0.91,2.04,1.94c0.17,0.58,0.33,1.18,0.33,1.8
			c0.01,3.9,0.06,7.8-0.02,11.69c-0.03,1.51-0.57,2.95-1.65,4.1c-1.75,1.87-3.98,2.18-6.35,1.82c-2.84-0.42-4.32-1.9-4.82-4.72
			c-0.15-0.85-0.21-1.73-0.22-2.59c-0.02-3.97-0.01-7.94-0.01-11.91c0-1.78,0.57-2.38,2.36-2.55c0.16-0.02,0.33-0.05,0.49-0.05
			c0.6-0.01,0.7-0.35,0.68-0.88c-0.02-0.64-0.46-0.47-0.8-0.48c-1.13-0.01-2.25,0-3.38,0c-2.72,0-5.45,0.01-8.17-0.01
			c-0.56-0.01-0.71,0.17-0.71,0.72c0,0.69,0.49,0.63,0.91,0.71c1.81,0.35,2.54,1.11,2.47,2.58c-0.09,2.13-0.02,4.27-0.02,6.4
			c0.02,0,0.04,0,0.07,0c0,2.28-0.09,4.56,0.02,6.83c0.17,3.56,1.96,6.05,5.29,7.35c2.95,1.15,6,1.3,9.06,0.63
			c2.27-0.49,4.15-1.7,5.48-3.66c0.97-1.42,1.42-3.01,1.43-4.71c0.04-3.31,0.03-6.62,0.03-9.93c0-0.94,0.05-1.88,0.19-2.81
			c0.19-1.25,0.84-2.1,2.12-2.43c0.52-0.13,1.05-0.25,1.59-0.3C191.24-74.48,191.05-74.96,191.08-75.33z"/>
		<path class="st2" d="M141.09-80.53c0.01,0.21,0.04,0.42,0.04,0.63c0.03,1.94,0.03,1.92,2,1.9c0.51-0.01,0.64-0.19,0.62-0.66
			c-0.03-0.73,0.03-1.46-0.02-2.18c-0.05-0.67,0.23-0.86,0.86-0.83c0.96,0.04,1.93,0.01,2.89,0.01c1.61-0.01,1.61-0.01,1.61,1.62
			c0,2.08,0,2.08,2.08,2.04c0.05,0,0.09,0,0.14,0c0.4,0.03,0.54-0.16,0.54-0.55c-0.01-0.8,0.02-1.6-0.02-2.4
			c-0.03-0.55,0.14-0.73,0.71-0.72c2.37,0.03,4.74,0.01,7.12,0.01c1.9,0,3.81-0.01,5.71,0.01c0.51,0.01,0.62-0.15,0.46-0.62
			c-0.2-0.58-0.4-1.16-0.52-1.75c-0.12-0.58-0.37-0.79-1-0.79c-5.99,0.03-11.98,0.02-17.97,0.01c-5.99,0-11.98,0.01-17.97-0.01
			c-0.57,0-0.87,0.16-0.99,0.72c-0.13,0.57-0.27,1.14-0.48,1.69c-0.23,0.63-0.01,0.74,0.59,0.74c4.11-0.02,8.22-0.01,12.33-0.01
			C141.01-81.67,141.01-81.67,141.09-80.53z"/>
		<path class="st2" d="M151.85-45.36C151.85-45.36,151.85-45.36,151.85-45.36c0-0.49,0-0.99,0-1.48c0.01-2.07,0.02-2.06-2.09-2.03
			c-0.54,0.01-0.68,0.2-0.67,0.71c0.03,1.6,0.01,3.19,0.02,4.79c0,0.33-0.01,0.65-0.22,0.94c-0.74,1-1.47,2-2.19,3.02
			c-0.28,0.4-0.47,0.36-0.72-0.02c-0.6-0.92-1.22-1.84-1.85-2.74c-0.27-0.38-0.38-0.78-0.38-1.25c0.02-1.6-0.01-3.19,0.02-4.79
			c0.01-0.49-0.14-0.68-0.64-0.64c-0.47,0.03-0.94,0.02-1.41,0c-0.41-0.02-0.59,0.1-0.59,0.55c0,1.88-0.03,3.76-0.05,5.63
			c0,0.36,0.04,0.7,0.25,1.01c1.54,2.3,3.08,4.6,4.59,6.91c0.3,0.47,0.46,0.37,0.73-0.01c1.12-1.59,2.17-3.25,3.43-4.72
			c1.48-1.72,2.1-3.59,1.78-5.8C151.85-45.32,151.85-45.34,151.85-45.36z"/>
	</g>
</g>
</svg>
